HIERARCHY
ROOT Hips
{
	OFFSET 0.000000 0.000000 0.000000
	CHANNELS 6 Xposition Yposition Zposition Zrotation Yrotation Xrotation 
	JOINT LeftUpLeg_virtual
	{
		OFFSET 0.000000 0.000000 0.000000
		CHANNELS 3 Zrotation Yrotation Xrotation
		JOINT LeftUpLeg
		{
			OFFSET 8.479694 -4.795517 -0.379053
			CHANNELS 3 Zrotation Yrotation Xrotation
			JOINT LeftLeg
			{
				OFFSET 0.485052 -32.551468 0.112863
				CHANNELS 3 Zrotation Yrotation Xrotation
				JOINT LeftFoot
				{
					OFFSET 0.438033 -32.635670 -3.012641
					CHANNELS 3 Zrotation Yrotation Xrotation
					JOINT LeftToeBase
					{
						OFFSET 0.970169 -13.225353 11.864223
						CHANNELS 3 Zrotation Yrotation Xrotation
						End Site
						{
							OFFSET 0.000000 0.000000 0.000000
						}
					}
				}
			}
		}
	}
	JOINT RightUpLeg_virtual
	{
		OFFSET 0.000000 0.000000 0.000000
		CHANNELS 3 Zrotation Yrotation Xrotation
		JOINT RightUpLeg
		{
			OFFSET -8.479694 -4.795517 -0.379053
			CHANNELS 3 Zrotation Yrotation Xrotation
			JOINT RightLeg
			{
				OFFSET -0.484100 -32.551483 0.112903
				CHANNELS 3 Zrotation Yrotation Xrotation
				JOINT RightFoot
				{
					OFFSET -0.438985 -32.635651 -3.012681
					CHANNELS 3 Zrotation Yrotation Xrotation
					JOINT RightToeBase
					{
						OFFSET -0.970169 -13.225354 11.864223
						CHANNELS 3 Zrotation Yrotation Xrotation
						End Site
						{
							OFFSET 0.000000 0.000000 0.000000
						}
					}
				}
			}
		}
	}
	JOINT Spine_virtual
	{
		OFFSET 0.000000 0.000000 0.000000
		CHANNELS 3 Zrotation Yrotation Xrotation
		JOINT Spine
		{
			OFFSET 0.000000 7.722015 1.166203
			CHANNELS 3 Zrotation Yrotation Xrotation
			JOINT Spine1
			{
				OFFSET 0.000000 12.024086 0.248766
				CHANNELS 3 Zrotation Yrotation Xrotation
				JOINT Spine2
				{
					OFFSET -0.000000 11.503036 -0.491240
					CHANNELS 3 Zrotation Yrotation Xrotation
					JOINT Neck_virtual
					{
						OFFSET 0.000000 0.000000 0.000000
						CHANNELS 3 Zrotation Yrotation Xrotation
						JOINT Neck
						{
							OFFSET 0.000000 18.430687 -3.123054
							CHANNELS 3 Zrotation Yrotation Xrotation
							JOINT Head
							{
								OFFSET -0.000000 9.051071 1.034021
								CHANNELS 3 Zrotation Yrotation Xrotation
								End Site
								{
									OFFSET 0.000000 0.000000 0.000000
								}
							}
						}
					}
					JOINT LeftShoulder_virtual
					{
						OFFSET 0.000000 0.000000 0.000000
						CHANNELS 3 Zrotation Yrotation Xrotation
						JOINT LeftShoulder
						{
							OFFSET 6.197824 13.665230 -4.064723
							CHANNELS 3 Zrotation Yrotation Xrotation
							JOINT LeftArm
							{
								OFFSET 7.778132 -0.187073 -1.709282
								CHANNELS 3 Zrotation Yrotation Xrotation
								JOINT LeftForeArm
								{
									OFFSET 21.954697 0.000000 -2.041093
									CHANNELS 3 Zrotation Yrotation Xrotation
									JOINT LeftHand
									{
										OFFSET 22.992908 0.000000 -0.870901
										CHANNELS 3 Zrotation Yrotation Xrotation
										End Site
										{
											OFFSET 0.000000 0.000000 0.000000
										}
									}
								}
							}
						}
					}
					JOINT RightShoulder_virtual
					{
						OFFSET 0.000000 0.000000 0.000000
						CHANNELS 3 Zrotation Yrotation Xrotation
						JOINT RightShoulder
						{
							OFFSET -6.197824 13.665230 -4.064723
							CHANNELS 3 Zrotation Yrotation Xrotation
							JOINT RightArm
							{
								OFFSET -7.778132 -0.187073 -1.709282
								CHANNELS 3 Zrotation Yrotation Xrotation
								JOINT RightForeArm
								{
									OFFSET -21.954697 0.000000 -2.041093
									CHANNELS 3 Zrotation Yrotation Xrotation
									JOINT RightHand
									{
										OFFSET -22.992908 0.000000 -0.870901
										CHANNELS 3 Zrotation Yrotation Xrotation
										End Site
										{
											OFFSET 0.000000 0.000000 0.000000
										}
									}
								}
							}
						}
					}
				}
			}
		}
	}
}
MOTION
Frames: 14
Frame Time: 0.033333
2.211993 79.067421 49.985493 -179.997464 -0.387866 179.888222 -2.258316 -1.168495 9.912488 2.676437 -3.542183 -32.556940 5.638349 5.525074 28.961020 -3.105286 -3.353548 -11.928529 0.000000 0.000000 0.000000 2.067522 -3.343366 9.251408 -1.195877 7.847063 -30.186738 -0.884447 3.992106 33.814327 3.575485 4.527831 -18.033296 0.000000 0.000000 0.000000 3.583034 0.301267 -2.285082 -0.088520 -1.245103 -3.969127 -1.925660 -1.572807 9.000121 0.004815 -0.024715 -0.019073 -2.265312 -0.041965 9.698897 0.486550 -1.179459 -0.679802 0.000000 0.000000 0.000000 -1.011441 0.613007 6.816410 -9.681129 -5.328797 1.296585 -58.891079 -4.258744 2.980152 -0.024749 -22.939446 8.053072 0.000000 0.000000 0.000000 -4.990092 2.072659 6.186633 26.653442 0.702523 6.622433 51.908379 2.822962 2.461796 -7.948394 30.198001 -5.233949 0.000000 0.000000 0.000000 
2.190917 79.078865 50.130695 179.896432 -0.448367 179.875819 -2.319970 -1.147060 9.663923 2.632339 -3.592443 -32.674474 5.558773 5.659162 29.157866 -3.322143 -3.604847 -11.960907 0.000000 0.000000 0.000000 2.047159 -3.446190 9.029234 -1.277248 8.178487 -30.258541 -1.310373 3.838213 33.794670 3.118204 3.955766 -18.268208 0.000000 0.000000 0.000000 3.601481 0.351725 -2.361099 0.023966 -1.161969 -3.992114 -1.898174 -1.592417 9.009146 0.048458 -0.029981 0.047081 -2.254791 -0.114832 9.707776 0.379310 -1.123653 -0.514559 0.000000 0.000000 0.000000 -1.031014 0.629281 6.809329 -9.854937 -5.518322 1.386763 -58.492087 -4.810073 3.470439 0.059454 -22.630363 8.277515 0.000000 0.000000 0.000000 -4.981093 2.010907 6.167520 26.658310 0.717605 6.535429 51.779555 2.574975 2.237265 -7.855600 29.797735 -5.223061 0.000000 0.000000 0.000000 
2.203668 79.100555 50.260441 179.911308 -0.539929 179.888154 -2.447900 -1.017914 9.402896 2.765446 -3.479590 -32.804719 5.619560 5.659156 29.543816 -3.436569 -3.813284 -11.628312 0.000000 0.000000 0.000000 2.038355 -3.203869 8.781592 -1.218999 8.178517 -30.215869 -1.376886 3.770383 33.923139 3.057472 3.833635 -18.035687 0.000000 0.000000 0.000000 3.604183 0.497378 -2.483862 0.271370 -1.117859 -4.154477 -1.867312 -1.705040 9.035644 -0.027244 0.095957 -0.051454 -2.108339 -0.016460 9.869689 0.264617 -1.100596 -0.267582 0.000000 0.000000 0.000000 -0.890486 0.601895 6.900148 -10.137759 -5.581232 1.502181 -57.781256 -5.707991 4.622077 0.337272 -22.320655 8.717216 0.000000 0.000000 0.000000 -4.885670 2.046817 6.264256 26.665451 0.804699 6.654924 51.640793 2.526139 1.855036 -8.030154 29.246033 -5.225108 0.000000 0.000000 0.000000 
2.270411 79.143066 50.335327 179.918384 -0.730374 179.941921 -2.617875 -0.877492 9.224328 2.911518 -3.409821 -32.968725 5.690903 5.560451 29.845027 -3.512567 -4.098802 -11.286662 0.000000 0.000000 0.000000 1.999048 -2.875525 8.603532 -0.998351 7.767911 -30.115957 -1.413001 3.752030 33.966138 3.079579 3.777244 -17.791799 0.000000 0.000000 0.000000 3.474578 0.716072 -2.678231 0.497332 -0.912944 -4.324600 -1.792192 -1.674819 9.029263 -0.023596 -0.013222 0.025229 -2.036741 -0.130998 9.850599 0.134934 -1.092137 -0.031547 0.000000 0.000000 0.000000 -0.829034 0.470118 6.900661 -10.443738 -5.597635 1.519821 -56.727993 -6.645291 6.759827 0.945292 -22.092296 9.236277 0.000000 0.000000 0.000000 -4.816777 1.905274 6.185692 26.744960 0.884779 6.717049 51.339503 2.694487 1.173161 -8.004977 28.546823 -5.159175 0.000000 0.000000 0.000000 
2.339257 79.196030 50.346836 179.962507 -0.952830 179.991713 -2.790738 -0.916336 9.366677 3.085280 -3.183267 -33.338563 5.754286 5.364840 29.957930 -3.492935 -4.401940 -11.040304 0.000000 0.000000 0.000000 1.934732 -2.711821 8.490217 -0.728927 7.197956 -30.012879 -1.422363 3.703416 33.960298 3.155232 3.772478 -17.565139 0.000000 0.000000 0.000000 3.333151 0.687993 -2.753443 0.682847 -0.868437 -4.625834 -1.735887 -1.790907 8.967351 0.011901 -0.029389 -0.020628 -2.060198 -0.318853 9.893331 -0.136092 -0.946355 0.262733 0.000000 0.000000 0.000000 -0.767155 0.507186 6.896300 -10.745917 -5.277149 1.555488 -55.205615 -7.349276 9.201632 1.591751 -22.702372 9.997017 0.000000 0.000000 0.000000 -4.817275 1.883585 6.356946 26.827048 1.151172 6.874555 50.918572 3.145391 0.650851 -8.028785 27.758177 -5.102074 0.000000 0.000000 0.000000 
2.416277 79.252228 50.321861 179.946552 -1.259037 179.879452 -2.863601 -1.136072 9.272903 3.140410 -3.106148 -33.167416 5.840395 5.270332 30.061097 -3.361177 -4.678371 -10.848806 0.000000 0.000000 0.000000 1.846077 -2.815545 8.479232 -0.488753 6.639982 -29.893566 -1.376285 3.682757 33.896911 3.313058 3.862372 -17.355991 0.000000 0.000000 0.000000 3.162233 0.566111 -2.663447 0.755754 -0.723036 -4.945248 -1.708283 -1.834674 8.938646 -0.016120 -0.028735 -0.038944 -1.988625 -0.277109 9.834943 -0.204776 -0.951732 0.608710 0.000000 0.000000 0.000000 -0.669274 0.370940 6.826140 -10.794114 -4.796036 1.589364 -53.317956 -7.427660 11.999605 2.229518 -25.279942 11.020065 0.000000 0.000000 0.000000 -4.727714 1.864874 6.313055 27.078594 1.214537 6.985844 50.403101 3.586896 0.057784 -8.153148 27.047233 -5.191145 0.000000 0.000000 0.000000 
2.496329 79.311264 50.162155 179.957057 -1.259420 179.990689 -2.956102 -1.395255 9.516598 3.212676 -2.806794 -33.423312 5.936193 5.222975 30.149070 -3.170121 -4.986958 -10.851347 0.000000 0.000000 0.000000 1.794303 -2.990514 8.480601 -0.281556 6.241776 -29.905239 -1.251800 3.689891 33.888762 3.531128 4.029684 -17.149063 0.000000 0.000000 0.000000 3.012622 0.311772 -2.669836 0.795050 -0.539160 -5.404691 -1.671769 -1.834983 8.838101 -0.028816 -0.003291 -0.024099 -1.967676 -0.240994 9.788996 -0.273050 -0.918764 0.991754 0.000000 0.000000 0.000000 -0.602268 0.376626 6.743580 -10.433571 -4.020641 1.690956 -50.924699 -6.610301 15.256199 2.707862 -30.485364 12.240451 0.000000 0.000000 0.000000 -4.699157 1.920707 6.298079 27.473668 1.275884 7.149876 49.605553 3.844108 -1.230540 -8.081150 26.824344 -5.181598 0.000000 0.000000 0.000000 
2.557468 79.370262 49.873871 -179.985347 -1.105218 -179.985047 -2.975837 -1.877590 9.659394 3.194129 -2.148171 -33.395356 6.029339 5.273006 30.425091 -2.952211 -5.263942 -11.067645 0.000000 0.000000 0.000000 1.767534 -3.302923 8.508457 -0.046851 5.884275 -29.814022 -1.076113 3.738544 33.957163 3.814242 4.281638 -16.997821 0.000000 0.000000 0.000000 2.923481 -0.039824 -2.623411 0.760810 -0.369283 -5.826855 -1.598522 -1.810772 8.784191 -0.021736 0.012905 0.028320 -1.941882 -0.228204 9.699955 -0.226245 -0.935205 1.476964 0.000000 0.000000 0.000000 -0.559588 0.315450 6.603340 -9.394672 -3.015913 1.766871 -48.038155 -4.848904 18.926997 2.822703 -39.087431 13.774390 0.000000 0.000000 0.000000 -4.650905 1.805317 6.247282 27.887732 0.932614 7.010900 48.698877 3.707271 -3.271506 -7.892336 27.484048 -5.147304 0.000000 0.000000 0.000000 
2.604297 79.433311 49.514496 -179.988940 -0.617025 179.996767 -3.008131 -2.417911 9.936569 3.188413 -1.621050 -33.395421 6.223946 5.346984 30.854956 -2.644971 -5.327163 -11.353656 0.000000 0.000000 0.000000 1.694771 -3.829894 8.528897 0.016598 5.760012 -29.731369 -0.817862 3.871025 34.032599 4.225307 4.633882 -16.827872 0.000000 0.000000 0.000000 2.775929 -0.482777 -2.586362 0.638662 -0.245860 -6.190548 -1.480745 -1.770800 8.735901 0.035884 0.001199 0.018420 -1.899033 -0.276191 9.683446 -0.129268 -0.935682 1.961690 0.000000 0.000000 0.000000 -0.504643 0.365994 6.481613 -7.602774 -1.783359 1.814025 -44.776005 -2.593401 22.992368 2.360848 -50.444611 15.809699 0.000000 0.000000 0.000000 -4.652325 1.835340 6.138426 28.306298 0.225884 6.712631 47.941637 3.054165 -5.996110 -7.871714 29.631068 -5.368135 0.000000 0.000000 0.000000 
2.626438 79.516037 49.165176 -179.916185 0.519571 -179.996836 -3.000976 -2.876887 10.195756 3.108090 -0.854230 -33.424227 6.517620 5.453462 31.389087 -2.305690 -5.151634 -11.578481 0.000000 0.000000 0.000000 1.697665 -4.097605 8.571845 -0.081039 5.957080 -29.698561 -0.558621 3.760270 33.975055 4.869482 5.196137 -16.470979 0.000000 0.000000 0.000000 2.656048 -0.966700 -2.521061 0.516824 -0.191626 -6.408250 -1.337201 -1.709023 8.703530 0.009477 -0.026986 0.030362 -1.766527 -0.193299 9.688223 -0.007192 -0.910371 2.389665 0.000000 0.000000 0.000000 -0.317155 0.500713 6.291992 -5.254234 -0.335989 1.846002 -41.403958 -0.180576 27.127679 0.881023 -62.913590 18.647675 0.000000 0.000000 0.000000 -4.607147 2.080332 5.939452 28.683011 -0.776349 6.290734 47.427751 2.224034 -9.293876 -7.744758 33.937560 -5.732305 0.000000 0.000000 0.000000 
2.626568 79.614906 49.009735 -179.952276 2.077498 -179.976960 -3.129884 -3.438470 10.411508 3.058689 -0.180449 -33.410430 6.909149 5.645734 31.740224 -1.878762 -4.666125 -11.642686 0.000000 0.000000 0.000000 1.873367 -4.664863 8.664375 -0.441995 6.290814 -29.908924 -0.254944 3.856537 33.894199 5.727247 5.841283 -15.780899 0.000000 0.000000 0.000000 2.469735 -1.325937 -2.358149 0.314083 -0.202982 -6.390991 -1.194260 -1.594956 8.683680 0.025030 -0.004541 0.040655 -1.577869 0.000913 9.636060 0.197901 -0.977160 2.638161 0.000000 0.000000 0.000000 -0.108777 0.482600 6.119963 -2.648257 1.006603 1.954054 -38.557060 1.965507 31.256660 -2.299168 -74.342176 23.119659 0.000000 0.000000 0.000000 -4.515124 2.049016 5.652163 28.973997 -2.037392 5.653448 47.374469 1.673789 -12.099941 -7.742630 40.633533 -6.323143 0.000000 0.000000 0.000000 
2.544698 79.733208 49.151058 -179.943629 4.352745 -179.949721 -3.044476 -3.661899 10.640339 3.014276 0.002858 -33.414583 7.278679 6.121022 31.680173 -1.308962 -3.647522 -11.302937 0.000000 0.000000 0.000000 2.211312 -4.834810 8.843492 -1.021220 6.704508 -30.601133 0.141073 4.263942 33.756376 6.614573 6.363377 -14.657984 0.000000 0.000000 0.000000 2.378713 -1.526532 -1.934017 0.128374 -0.296957 -6.168859 -1.037977 -1.485248 8.621983 0.021461 -0.006756 0.036980 -1.380385 0.045819 9.544806 0.279182 -0.987527 2.607264 0.000000 0.000000 0.000000 0.114004 0.509283 5.915056 -0.271259 2.206432 2.001457 -36.756110 3.812716 35.408630 -11.766496 -83.146427 33.895729 0.000000 0.000000 0.000000 -4.451709 2.197513 5.253414 29.013226 -3.068773 5.127666 47.667655 1.842103 -13.955142 -8.175970 49.645428 -7.384446 0.000000 0.000000 0.000000 
2.335177 79.842247 49.698250 -179.938055 7.287456 -179.950664 -2.795529 -3.570178 10.839663 2.648311 -0.001034 -33.407763 7.734051 6.331032 31.044764 -0.623636 -2.294000 -10.531182 0.000000 0.000000 0.000000 2.745850 -4.768172 9.151286 -1.910959 7.296665 -31.875434 0.718324 4.999580 33.587151 7.564876 6.910575 -13.203505 0.000000 0.000000 0.000000 2.413287 -1.516490 -1.159428 -0.090097 -0.444858 -5.736675 -0.953769 -1.372206 8.510424 -0.017561 -0.025559 0.074197 -1.182996 0.246849 9.308001 0.199573 -0.975686 2.244158 0.000000 0.000000 0.000000 0.356087 0.597162 5.654082 1.531707 3.076651 2.051658 -36.421929 5.334589 39.726235 -58.753595 -88.062852 82.200705 0.000000 0.000000 0.000000 -4.320541 2.240522 4.913916 28.683424 -3.713724 4.474705 48.094033 3.228509 -14.152765 -9.415845 60.297996 -9.234394 0.000000 0.000000 0.000000 
1.941205 79.914818 50.642391 -179.929832 10.903483 -179.837023 -2.425372 -3.231627 10.822339 2.108130 0.007747 -33.420980 8.363808 7.037356 30.047317 0.162972 -0.792655 -9.459867 0.000000 0.000000 0.000000 3.342249 -4.291514 9.566586 -3.002278 8.114657 -33.637964 1.178929 5.729504 33.425067 8.591583 7.370866 -11.438629 0.000000 0.000000 0.000000 2.615215 -1.197660 -0.126639 -0.270822 -0.539779 -5.213989 -0.892992 -1.223743 8.266355 -0.034016 0.019221 0.046332 -1.013794 0.361090 9.030421 0.005707 -1.036973 1.490136 0.000000 0.000000 0.000000 0.497389 0.662518 5.475270 2.724746 3.482820 2.004707 -37.594980 6.466656 44.056759 -139.648695 -87.766380 164.523998 0.000000 0.000000 0.000000 -4.291348 2.401801 4.508569 28.098614 -4.151752 3.989048 48.564991 5.836061 -12.977648 -12.557310 71.319032 -12.926337 0.000000 0.000000 0.000000 
